<svg xmlns="http://www.w3.org/2000/svg" width="80" height="63.768" viewBox="0 0 80 63.768"><defs><style>.a{fill:#bdbdbd;}.b{fill:#505151;}.c{fill:#2ba4f0;}</style></defs><g transform="translate(-207.062 -17.589)"><path class="a" d="M256.622,28.568a10.236,10.236,0,0,0,3.294,2.576L216.405,68.188a2.5,2.5,0,0,1-1.884.616,2.388,2.388,0,0,1-1.741-.907l-2-2.3a2.57,2.57,0,0,1-.594-1.885,2.454,2.454,0,0,1,.885-1.744l43.53-37.064a10.241,10.241,0,0,0,2.017,3.661" transform="translate(5.3 12.44)"/><path class="a" d="M240.753,17.919a.87.87,0,0,1,.243.726,9.7,9.7,0,0,1-1.231,2.022q-1.207,1.754-2.746,3.855t-1.639,2.246l2.735,6.029,6.7.537,5.756-8.356a.973.973,0,0,1,.875-.41.987.987,0,0,1,.8.545,10.287,10.287,0,0,1,1.131,3.324,14.582,14.582,0,0,1,.2,3.674,13.438,13.438,0,0,1-26.791-2.152A13.584,13.584,0,0,1,236.8,18.035a10.5,10.5,0,0,1,3.224-.432,1.114,1.114,0,0,1,.726.316" transform="translate(33.445 0)"/><path class="b" d="M213.882,29.321l.14-.292a8.307,8.307,0,0,1,2.138-2.724l.248-.205c2.041-1.512,6.561-1.215,8.173.051l40.924,36.634a1.893,1.893,0,0,1,.64,1.72,3.9,3.9,0,0,1-.88,2.192l-.327.416a3.911,3.911,0,0,1-1.92,1.377,1.887,1.887,0,0,1-1.82-.213L215.875,37.248c-1.793-1.407-2.959-6.1-1.992-7.927" transform="translate(11.001 12.734)"/><path class="c" d="M227.434,36.534a7.462,7.462,0,0,0-5.132,6.539c-9.755-.761-14.514-6.976-15.154-11.685-.724-5.33,3.278-10.543,7.492-13.208a14.105,14.105,0,0,0,1.388-.591c-.084.127-2.878,5.937-.67,8.005,1.112,1.042,2.746.742,4.1.877A7.881,7.881,0,0,1,224,28.513a11.165,11.165,0,0,1,3.437,8.021" transform="translate(0 0)"/></g></svg>